<svg width="18" height="19" viewBox="0 0 18 19" fill="none" xmlns="http://www.w3.org/2000/svg">
<path d="M17 6V15.34C17 16.8864 15.7464 18.14 14.2 18.14H3.8C2.2536 18.14 1 16.8864 1 15.34V3.8C1 2.2536 2.2536 1 3.8 1H12.3203" stroke="#292D32" stroke-width="1.5" stroke-linecap="round"/>
<path d="M12.5595 1.09666L16.9033 5.44046C17.1098 5.64694 16.9636 6 16.6716 6H12.3278C12.1467 6 12 5.85325 12 5.67223V1.32843C12 1.03642 12.3531 0.890174 12.5595 1.09666Z" stroke="#292D32" stroke-width="1.5"/>
<path d="M7 12.2607L8.16795 14.0127C8.56377 14.6064 9.43623 14.6064 9.83205 14.0127L11 12.2607" stroke="#292D32" stroke-width="1.5" stroke-linecap="round" stroke-dasharray="0.2 0.2"/>
<path d="M9.04321 14V7" stroke="#292D32" stroke-width="1.5" stroke-linecap="round"/>
</svg>
