<svg width="40" height="40" viewBox="0 0 40 40" fill="none" xmlns="http://www.w3.org/2000/svg">
<path fill-rule="evenodd" clip-rule="evenodd" d="M34.7569 19.8282L20.0482 5.07129L5.24504 19.8262C4.91908 20.1511 4.91821 20.6788 5.24312 21.0048C5.56802 21.3307 6.09566 21.3316 6.42162 21.0067L8.33333 19.1012V34.1664C8.33333 34.6266 8.70642 34.9997 9.16667 34.9997H16.6667C17.1269 34.9997 17.5 34.6266 17.5 34.1664V26.8824C17.5 26.4222 17.8731 26.049 18.3333 26.049H21.6667C22.1269 26.049 22.5 26.4222 22.5 26.8824V34.1664C22.5 34.6266 22.8731 34.9997 23.3333 34.9997H30.8333C31.2936 34.9997 31.6667 34.6266 31.6667 34.1664V19.0887L33.5764 21.0048C33.9013 21.3307 34.429 21.3316 34.7549 21.0067C35.0809 20.6818 35.0818 20.1541 34.7569 19.8282ZM30 17.4165L20.0444 7.42831L10 17.44V33.333H15.8333V26.8824C15.8333 25.5017 16.9526 24.3824 18.3333 24.3824H21.6667C23.0474 24.3824 24.1667 25.5017 24.1667 26.8824V33.333H30V17.4165Z" fill="#333333"/>
</svg>
