<svg width="40" height="40" viewBox="0 0 40 40" fill="none" xmlns="http://www.w3.org/2000/svg">
<path d="M18.9226 16.9107C18.5971 16.5853 18.0695 16.5853 17.7441 16.9107C17.4186 17.2362 17.4186 17.7638 17.7441 18.0892L20.4881 20.8333L17.7441 23.5774C17.4186 23.9028 17.4186 24.4305 17.7441 24.7559C18.0695 25.0813 18.5971 25.0813 18.9226 24.7559L21.6666 22.0118L24.4107 24.7559C24.7361 25.0813 25.2638 25.0813 25.5892 24.7559C25.9146 24.4305 25.9146 23.9028 25.5892 23.5774L22.8451 20.8333L25.5892 18.0892C25.9146 17.7638 25.9146 17.2362 25.5892 16.9107C25.2638 16.5853 24.7361 16.5853 24.4107 16.9107L21.6666 19.6548L18.9226 16.9107Z" fill="#E0E0E0"/>
<path fill-rule="evenodd" clip-rule="evenodd" d="M31.6665 12.5V30C31.6665 31.3807 30.5473 32.5 29.1665 32.5H14.1665C12.7858 32.5 11.6665 31.3807 11.6665 30V6.66666C11.6665 5.28596 12.7858 4.16666 14.1665 4.16666H23.3332L31.6665 12.5ZM23.3332 13.3333C22.8729 13.3333 22.4998 12.9602 22.4998 12.5V5.83333H14.1665C13.7063 5.83333 13.3332 6.20643 13.3332 6.66666V30C13.3332 30.4602 13.7063 30.8333 14.1665 30.8333H29.1665C29.6268 30.8333 29.9998 30.4602 29.9998 30V13.3333H23.3332ZM24.1665 7.35702L28.4762 11.6667H24.1665V7.35702Z" fill="#E0E0E0"/>
<path d="M10.0002 9.16666V31.6667C10.0002 33.0474 11.1194 34.1667 12.5002 34.1667H28.3335V35.8333H12.5002C10.199 35.8333 8.3335 33.9678 8.3335 31.6667V9.16666H10.0002Z" fill="#E0E0E0"/>
</svg>
