<svg width="40" height="40" viewBox="0 0 40 40" fill="none" xmlns="http://www.w3.org/2000/svg">
<mask id="mask0_3384_96" style="mask-type:alpha" maskUnits="userSpaceOnUse" x="3" y="8" width="34" height="25">
<path d="M19.1667 10H4.16669V11.6667H19.1667V10Z" fill="white"/>
<path fill-rule="evenodd" clip-rule="evenodd" d="M19.1667 13.3333H5.00001V30.8333H4.16668C3.70644 30.8333 3.33334 31.2063 3.33334 31.6666C3.33334 32.1268 3.70644 32.4999 4.16668 32.4999H35.8333C36.2936 32.4999 36.6667 32.1268 36.6667 31.6666C36.6667 31.2063 36.2936 30.8333 35.8333 30.8333H35V13.3333H32.5V14.9999H33.3333V30.8333H30.8333V20.8333H24.1667V30.8333H6.66668V14.9999H19.1667V13.3333ZM29.1667 30.8333H25.8333V22.4999H29.1667V30.8333Z" fill="white"/>
<path d="M32.5 11.6667V10H35.8333V11.6667H32.5Z" fill="white"/>
<path fill-rule="evenodd" clip-rule="evenodd" d="M9.16668 26.6666V20.8333H21.6667V26.6666H22.5V28.3333H8.33334V26.6666H9.16668ZM10.8333 22.4999H20V26.6666H10.8333V22.4999Z" fill="white"/>
<path d="M29.1667 8.33325H22.5C21.5795 8.33325 20.8333 9.07942 20.8333 9.99992V16.6666C20.8333 17.5871 21.5795 18.3333 22.5 18.3333H29.1667C30.0872 18.3333 30.8333 17.5871 30.8333 16.6666V9.99992C30.8333 9.07942 30.0872 8.33325 29.1667 8.33325Z" fill="white"/>
</mask>
<g mask="url(#mask0_3384_96)">
<path d="M26.6667 11.6667V10.8334H25V11.6667H26.6667ZM24.1667 12.5001H23.3333V14.1667H24.1667V12.5001ZM4.99999 10.8334V15.0001H6.66666V10.8334H4.99999ZM33.3333 10.8334V15.0001H35V10.8334H33.3333ZM25 11.6667V15.0001H26.6667V11.6667H25ZM24.1667 14.1667H27.5V12.5001H24.1667V14.1667ZM19.1667 10.0001H20.8333V8.33341H19.1667V10.0001ZM4.16666 10.0001V8.33341H2.49999V10.0001H4.16666ZM4.16666 11.6667H2.49999V13.3334H4.16666V11.6667ZM19.1667 11.6667V13.3334H20.8333V11.6667H19.1667ZM19.1667 13.3334H20.8333V11.6667H19.1667V13.3334ZM4.99999 13.3334V11.6667H3.33332V13.3334H4.99999ZM4.99999 30.8334V32.5001H6.66666V30.8334H4.99999ZM35 30.8334H33.3333V32.5001H35V30.8334ZM35 13.3334H36.6667V11.6667H35V13.3334ZM32.5 13.3334V11.6667H30.8333V13.3334H32.5ZM32.5 15.0001H30.8333V16.6667H32.5V15.0001ZM33.3333 15.0001H35V13.3334H33.3333V15.0001ZM33.3333 30.8334V32.5001H35V30.8334H33.3333ZM30.8333 30.8334H29.1667V32.5001H30.8333V30.8334ZM30.8333 20.8334H32.5V19.1667H30.8333V20.8334ZM24.1667 20.8334V19.1667H22.5V20.8334H24.1667ZM24.1667 30.8334V32.5001H25.8333V30.8334H24.1667ZM6.66666 30.8334H4.99999V32.5001H6.66666V30.8334ZM6.66666 15.0001V13.3334H4.99999V15.0001H6.66666ZM19.1667 15.0001V16.6667H20.8333V15.0001H19.1667ZM32.5 10.0001V8.33341H30.8333V10.0001H32.5ZM32.5 11.6667H30.8333V13.3334H32.5V11.6667ZM35.8333 10.0001H37.5V8.33341H35.8333V10.0001ZM35.8333 11.6667V13.3334H37.5V11.6667H35.8333ZM25.8333 30.8334H24.1667V32.5001H25.8333V30.8334ZM29.1667 30.8334V32.5001H30.8333V30.8334H29.1667ZM25.8333 22.5001V20.8334H24.1667V22.5001H25.8333ZM29.1667 22.5001H30.8333V20.8334H29.1667V22.5001ZM20 22.5001H21.6667V20.8334H20V22.5001ZM10.8333 22.5001V20.8334H9.16666V22.5001H10.8333ZM20 26.6667V28.3334H21.6667V26.6667H20ZM10.8333 26.6667H9.16666V28.3334H10.8333V26.6667ZM9.16666 26.6667V28.3334H10.8333V26.6667H9.16666ZM9.16666 20.8334V19.1667H7.49999V20.8334H9.16666ZM21.6667 20.8334H23.3333V19.1667H21.6667V20.8334ZM21.6667 26.6667H20V28.3334H21.6667V26.6667ZM22.5 26.6667H24.1667V25.0001H22.5V26.6667ZM22.5 28.3334V30.0001H24.1667V28.3334H22.5ZM8.33332 28.3334H6.66666V30.0001H8.33332V28.3334ZM8.33332 26.6667V25.0001H6.66666V26.6667H8.33332ZM19.1667 8.33341H4.16666V11.6667H19.1667V8.33341ZM2.49999 10.0001V11.6667H5.83332V10.0001H2.49999ZM4.16666 13.3334H19.1667V10.0001H4.16666V13.3334ZM20.8333 11.6667V10.0001H17.5V11.6667H20.8333ZM4.16666 32.5001H4.99999V29.1667H4.16666V32.5001ZM4.99999 31.6667C4.99999 32.127 4.6269 32.5001 4.16666 32.5001V29.1667C2.78595 29.1667 1.66666 30.286 1.66666 31.6667H4.99999ZM4.16666 30.8334C4.6269 30.8334 4.99999 31.2065 4.99999 31.6667H1.66666C1.66666 33.0475 2.78595 34.1667 4.16666 34.1667V30.8334ZM35 31.6667C35 31.2065 35.3731 30.8334 35.8333 30.8334V34.1667C37.2141 34.1667 38.3333 33.0475 38.3333 31.6667H35ZM35.8333 32.5001C35.3731 32.5001 35 32.127 35 31.6667H38.3333C38.3333 30.286 37.2141 29.1667 35.8333 29.1667V32.5001ZM35 32.5001H35.8333V29.1667H35V32.5001ZM30.8333 13.3334V15.0001H34.1667V13.3334H30.8333ZM32.5 16.6667H33.3333V13.3334H32.5V16.6667ZM31.6667 15.0001V30.8334H35V15.0001H31.6667ZM33.3333 29.1667H30.8333V32.5001H33.3333V29.1667ZM24.1667 29.1667H6.66666V32.5001H24.1667V29.1667ZM8.33332 30.8334V15.0001H4.99999V30.8334H8.33332ZM6.66666 16.6667H19.1667V13.3334H6.66666V16.6667ZM20.8333 15.0001V13.3334H17.5V15.0001H20.8333ZM30.8333 10.0001V11.6667H34.1667V10.0001H30.8333ZM35.8333 8.33341H32.5V11.6667H35.8333V8.33341ZM37.5 11.6667V10.0001H34.1667V11.6667H37.5ZM32.5 13.3334H35.8333V10.0001H32.5V13.3334ZM25.8333 32.5001H29.1667V29.1667H25.8333V32.5001ZM24.1667 22.5001V30.8334H27.5V22.5001H24.1667ZM29.1667 20.8334H25.8333V24.1667H29.1667V20.8334ZM30.8333 30.8334V22.5001H27.5V30.8334H30.8333ZM20 20.8334H10.8333V24.1667H20V20.8334ZM21.6667 26.6667V22.5001H18.3333V26.6667H21.6667ZM10.8333 28.3334H20V25.0001H10.8333V28.3334ZM9.16666 22.5001V26.6667H12.5V22.5001H9.16666ZM22.5 25.0001H21.6667V28.3334H22.5V25.0001ZM24.1667 28.3334V26.6667H20.8333V28.3334H24.1667ZM6.66666 26.6667V28.3334H9.99999V26.6667H6.66666ZM9.16666 25.0001H8.33332V28.3334H9.16666V25.0001ZM22.5 10.0001H29.1667V6.66675H22.5V10.0001ZM29.1667 10.0001V16.6667H32.5V10.0001H29.1667ZM29.1667 16.6667H22.5V20.0001H29.1667V16.6667ZM22.5 16.6667V10.0001H19.1667V16.6667H22.5ZM22.5 16.6667H19.1667C19.1667 18.5077 20.6591 20.0001 22.5 20.0001V16.6667ZM29.1667 16.6667V20.0001C31.0076 20.0001 32.5 18.5077 32.5 16.6667H29.1667ZM29.1667 10.0001H32.5C32.5 8.15913 31.0076 6.66675 29.1667 6.66675V10.0001ZM22.5 6.66675C20.6591 6.66675 19.1667 8.15913 19.1667 10.0001H22.5V6.66675ZM4.99999 15.0001H19.1667V11.6667H4.99999V15.0001ZM6.66666 30.8334V13.3334H3.33332V30.8334H6.66666ZM35.8333 30.8334H4.16666V34.1667H35.8333V30.8334ZM33.3333 13.3334V30.8334H36.6667V13.3334H33.3333ZM32.5 15.0001H35V11.6667H32.5V15.0001ZM32.5 30.8334V20.8334H29.1667V30.8334H32.5ZM30.8333 19.1667H24.1667V22.5001H30.8333V19.1667ZM22.5 20.8334V30.8334H25.8333V20.8334H22.5ZM7.49999 20.8334V26.6667H10.8333V20.8334H7.49999ZM21.6667 19.1667H9.16666V22.5001H21.6667V19.1667ZM23.3333 26.6667V20.8334H20V26.6667H23.3333ZM8.33332 30.0001H22.5V26.6667H8.33332V30.0001Z" fill="#333333"/>
</g>
</svg>
